<svg width="37" height="36" viewBox="0 0 37 36" fill="none" xmlns="http://www.w3.org/2000/svg">
<rect x="36.5" width="36" height="36" rx="8" transform="rotate(90 36.5 0)" fill="#3C5890"/>
<path d="M27.7503 17.9996C27.7503 18.2649 27.6449 18.5201 27.4573 18.7076C27.2698 18.895 27.0154 18.9996 26.7503 18.9996H12.6644L17.7073 24.0426C17.8948 24.2301 18.0002 24.4845 18.0003 24.7496C18.0003 25.015 17.8949 25.27 17.7073 25.4576C17.5197 25.6451 17.2655 25.7506 17.0003 25.7506C16.7351 25.7506 16.4809 25.6451 16.2933 25.4576L9.54326 18.7076C9.45034 18.6148 9.37581 18.5047 9.32549 18.3834C9.27517 18.262 9.24932 18.131 9.24932 17.9996C9.24937 17.8684 9.27522 17.7381 9.32549 17.6168C9.36318 17.5259 9.41467 17.4416 9.47686 17.3658L9.54326 17.2926L16.2933 10.5426C16.4809 10.3551 16.7351 10.2496 17.0003 10.2496C17.2655 10.2496 17.5197 10.3551 17.7073 10.5426C17.8948 10.7301 18.0002 10.9845 18.0003 11.2496C18.0003 11.515 17.8949 11.77 17.7073 11.9576L12.6653 16.9996L26.7503 16.9996C27.0154 16.9996 27.2698 17.1052 27.4573 17.2926C27.6448 17.48 27.7502 17.7346 27.7503 17.9996Z" fill="#D1D1D1" stroke="#D0D1D1" stroke-width="0.5"/>
</svg>
