<svg width="33" height="33" viewBox="0 0 33 33" fill="none" xmlns="http://www.w3.org/2000/svg">
<path d="M26.1112 14.8523H7.4445C5.97174 14.8523 4.77783 16.0462 4.77783 17.519V26.8523C4.77783 28.3251 5.97174 29.519 7.4445 29.519H26.1112C27.5839 29.519 28.7778 28.3251 28.7778 26.8523V17.519C28.7778 16.0462 27.5839 14.8523 26.1112 14.8523Z" stroke="#0B111E" stroke-width="2.31" stroke-linecap="round" stroke-linejoin="round"/>
<path d="M10.1108 14.8494V9.51603C10.1108 7.74792 10.8132 6.05223 12.0635 4.80199C13.3137 3.55174 15.0094 2.84937 16.7775 2.84937C18.5456 2.84937 20.2413 3.55174 21.4916 4.80199C22.7418 6.05223 23.4442 7.74792 23.4442 9.51603V14.8494" stroke="#0B111E" stroke-width="2.31" stroke-linecap="round" stroke-linejoin="round"/>
</svg>
