<svg width="41" height="41" viewBox="0 0 41 41" fill="none" xmlns="http://www.w3.org/2000/svg">
<path d="M25.5277 4.01807H10.5277C9.64361 4.01807 8.79577 4.36926 8.17065 4.99438C7.54553 5.6195 7.19434 6.46734 7.19434 7.3514V34.0181C7.19434 34.9021 7.54553 35.75 8.17065 36.3751C8.79577 37.0002 9.64361 37.3514 10.5277 37.3514H30.5277C31.4117 37.3514 32.2596 37.0002 32.8847 36.3751C33.5098 35.75 33.861 34.9021 33.861 34.0181V12.3514L25.5277 4.01807Z" stroke="#5593F7" stroke-width="2.625" stroke-linecap="round" stroke-linejoin="round"/>
<path d="M23.8613 4.01807V10.6847C23.8613 11.5688 24.2125 12.4166 24.8376 13.0418C25.4628 13.6669 26.3106 14.0181 27.1947 14.0181H33.8613" stroke="#5593F7" stroke-width="2.625" stroke-linecap="round" stroke-linejoin="round"/>
<path d="M15.5278 25.6844L18.8612 29.0177L25.5278 22.3511" stroke="#5593F7" stroke-width="2.625" stroke-linecap="round" stroke-linejoin="round"/>
</svg>
