<svg width="33" height="33" viewBox="0 0 33 33" fill="none" xmlns="http://www.w3.org/2000/svg">
<path d="M3.52719 17.3971C3.41607 17.0977 3.41607 16.7685 3.52719 16.4691C4.60946 13.8449 6.44654 11.6012 8.80555 10.0223C11.1646 8.44344 13.9392 7.60059 16.7779 7.60059C19.6165 7.60059 22.3912 8.44344 24.7502 10.0223C27.1092 11.6012 28.9463 13.8449 30.0285 16.4691C30.1396 16.7685 30.1396 17.0977 30.0285 17.3971C28.9463 20.0213 27.1092 22.265 24.7502 23.8439C22.3912 25.4228 19.6165 26.2656 16.7779 26.2656C13.9392 26.2656 11.1646 25.4228 8.80555 23.8439C6.44654 22.265 4.60946 20.0213 3.52719 17.3971Z" stroke="#0B111E" stroke-width="2.31" stroke-linecap="round" stroke-linejoin="round"/>
<path d="M16.7778 20.9341C18.987 20.9341 20.7778 19.1432 20.7778 16.9341C20.7778 14.7249 18.987 12.9341 16.7778 12.9341C14.5687 12.9341 12.7778 14.7249 12.7778 16.9341C12.7778 19.1432 14.5687 20.9341 16.7778 20.9341Z" stroke="#0B111E" stroke-width="2.31" stroke-linecap="round" stroke-linejoin="round"/>
</svg>
