<svg width="33" height="33" viewBox="0 0 33 33" fill="none" xmlns="http://www.w3.org/2000/svg">
<path d="M22.1112 26.8511V5.51774C22.1112 4.8105 21.8303 4.13222 21.3302 3.63212C20.8301 3.13203 20.1518 2.85107 19.4446 2.85107H14.1112C13.404 2.85107 12.7257 3.13203 12.2256 3.63212C11.7255 4.13222 11.4446 4.8105 11.4446 5.51774V26.8511" stroke="#3B82F6" stroke-width="2.31" stroke-linecap="round" stroke-linejoin="round"/>
<path d="M27.4446 8.18457H6.11125C4.63849 8.18457 3.44458 9.37848 3.44458 10.8512V24.1846C3.44458 25.6573 4.63849 26.8512 6.11125 26.8512H27.4446C28.9173 26.8512 30.1112 25.6573 30.1112 24.1846V10.8512C30.1112 9.37848 28.9173 8.18457 27.4446 8.18457Z" stroke="#3B82F6" stroke-width="2.31" stroke-linecap="round" stroke-linejoin="round"/>
</svg>
