<svg width="33" height="33" viewBox="0 0 33 33" fill="none" xmlns="http://www.w3.org/2000/svg">
<path d="M16.7311 2.85107H16.1444C15.4372 2.85107 14.7589 3.13203 14.2588 3.63212C13.7587 4.13222 13.4777 4.8105 13.4777 5.51774V5.75774C13.4773 6.22538 13.3538 6.68466 13.1198 7.08952C12.8858 7.49439 12.5494 7.83059 12.1444 8.06441L11.5711 8.39774C11.1657 8.63179 10.7058 8.75501 10.2377 8.75501C9.76965 8.75501 9.3098 8.63179 8.90441 8.39774L8.70441 8.29107C8.0925 7.93809 7.36553 7.84233 6.68308 8.02482C6.00064 8.2073 5.41848 8.65312 5.06441 9.26441L4.77108 9.77108C4.4181 10.383 4.32234 11.11 4.50482 11.7924C4.68731 12.4749 5.13313 13.057 5.74441 13.4111L5.94441 13.5444C6.34745 13.7771 6.68257 14.1112 6.91648 14.5135C7.15039 14.9158 7.27494 15.3724 7.27775 15.8377V16.5177C7.27961 16.9876 7.15728 17.4497 6.92314 17.8571C6.689 18.2645 6.35136 18.6028 5.94441 18.8377L5.74441 18.9577C5.13313 19.3118 4.68731 19.894 4.50482 20.5764C4.32234 21.2589 4.4181 21.9858 4.77108 22.5977L5.06441 23.1044C5.41848 23.7157 6.00064 24.1615 6.68308 24.344C7.36553 24.5265 8.0925 24.4307 8.70441 24.0777L8.90441 23.9711C9.3098 23.737 9.76965 23.6138 10.2377 23.6138C10.7058 23.6138 11.1657 23.737 11.5711 23.9711L12.1444 24.3044C12.5494 24.5382 12.8858 24.8744 13.1198 25.2793C13.3538 25.6842 13.4773 26.1434 13.4777 26.6111V26.8511C13.4777 27.5583 13.7587 28.2366 14.2588 28.7367C14.7589 29.2368 15.4372 29.5177 16.1444 29.5177H16.7311C17.4383 29.5177 18.1166 29.2368 18.6167 28.7367C19.1168 28.2366 19.3977 27.5583 19.3977 26.8511V26.6111C19.3982 26.1434 19.5217 25.6842 19.7557 25.2793C19.9897 24.8744 20.3261 24.5382 20.7311 24.3044L21.3044 23.9711C21.7098 23.737 22.1697 23.6138 22.6377 23.6138C23.1058 23.6138 23.5657 23.737 23.9711 23.9711L24.1711 24.0777C24.783 24.4307 25.51 24.5265 26.1924 24.344C26.8749 24.1615 27.457 23.7157 27.8111 23.1044L28.1044 22.5844C28.4574 21.9725 28.5532 21.2455 28.3707 20.5631C28.1882 19.8806 27.7424 19.2985 27.1311 18.9444L26.9311 18.8377C26.5241 18.6028 26.1865 18.2645 25.9524 17.8571C25.7182 17.4497 25.5959 16.9876 25.5978 16.5177V15.8511C25.5959 15.3812 25.7182 14.9191 25.9524 14.5117C26.1865 14.1043 26.5241 13.766 26.9311 13.5311L27.1311 13.4111C27.7424 13.057 28.1882 12.4749 28.3707 11.7924C28.5532 11.11 28.4574 10.383 28.1044 9.77108L27.8111 9.26441C27.457 8.65312 26.8749 8.2073 26.1924 8.02482C25.51 7.84233 24.783 7.93809 24.1711 8.29107L23.9711 8.39774C23.5657 8.63179 23.1058 8.75501 22.6377 8.75501C22.1697 8.75501 21.7098 8.63179 21.3044 8.39774L20.7311 8.06441C20.3261 7.83059 19.9897 7.49439 19.7557 7.08952C19.5217 6.68466 19.3982 6.22538 19.3977 5.75774V5.51774C19.3977 4.8105 19.1168 4.13222 18.6167 3.63212C18.1166 3.13203 17.4383 2.85107 16.7311 2.85107Z" stroke="#06B6D4" stroke-width="2.31" stroke-linecap="round" stroke-linejoin="round"/>
<path d="M16.4377 20.1846C18.6469 20.1846 20.4377 18.3937 20.4377 16.1846C20.4377 13.9754 18.6469 12.1846 16.4377 12.1846C14.2286 12.1846 12.4377 13.9754 12.4377 16.1846C12.4377 18.3937 14.2286 20.1846 16.4377 20.1846Z" stroke="#06B6D4" stroke-width="2.31" stroke-linecap="round" stroke-linejoin="round"/>
</svg>
