<svg width="31" height="37" viewBox="0 0 31 37" fill="none" xmlns="http://www.w3.org/2000/svg">
<path d="M28.841 20.3521C28.841 28.6855 23.0076 32.8522 16.0743 35.2688C15.7113 35.3918 15.3169 35.386 14.9576 35.2522C8.00765 32.8522 2.17432 28.6855 2.17432 20.3521V8.68548C2.17432 8.24345 2.34991 7.81953 2.66247 7.50697C2.97503 7.19441 3.39896 7.01882 3.84098 7.01882C7.17432 7.01882 11.341 5.01882 14.241 2.48548C14.5941 2.18381 15.0432 2.01807 15.5076 2.01807C15.9721 2.01807 16.4212 2.18381 16.7743 2.48548C19.691 5.03548 23.841 7.01882 27.1743 7.01882C27.6163 7.01882 28.0403 7.19441 28.3528 7.50697C28.6654 7.81953 28.841 8.24345 28.841 8.68548V20.3521Z" stroke="#5593F7" stroke-width="2.625" stroke-linecap="round" stroke-linejoin="round"/>
</svg>
