<svg width="33" height="33" viewBox="0 0 33 33" fill="none" xmlns="http://www.w3.org/2000/svg">
<path d="M20.778 3.59961H8.778C8.07075 3.59961 7.39247 3.88056 6.89238 4.38066C6.39228 4.88075 6.11133 5.55903 6.11133 6.26628V27.5996C6.11133 28.3069 6.39228 28.9851 6.89238 29.4852C7.39247 29.9853 8.07075 30.2663 8.778 30.2663H24.778C25.4852 30.2663 26.1635 29.9853 26.6636 29.4852C27.1637 28.9851 27.4447 28.3069 27.4447 27.5996V10.2663L20.778 3.59961Z" stroke="#0B111E" stroke-width="2.31" stroke-linecap="round" stroke-linejoin="round"/>
<path d="M19.4443 3.59961V8.93294C19.4443 9.64019 19.7253 10.3185 20.2254 10.8186C20.7255 11.3187 21.4038 11.5996 22.111 11.5996H27.4443" stroke="#0B111E" stroke-width="2.31" stroke-linecap="round" stroke-linejoin="round"/>
<path d="M12.7778 20.9342L15.4445 23.6009L20.7778 18.2676" stroke="#0B111E" stroke-width="2.31" stroke-linecap="round" stroke-linejoin="round"/>
</svg>
