<svg width="41" height="41" viewBox="0 0 41 41" fill="none" xmlns="http://www.w3.org/2000/svg">
<path d="M3.46453 21.2637C3.32563 20.8895 3.32563 20.4779 3.46453 20.1037C4.81736 16.8235 7.11372 14.0188 10.0625 12.0452C13.0112 10.0716 16.4796 9.01807 20.0279 9.01807C23.5761 9.01807 27.0445 10.0716 29.9932 12.0452C32.942 14.0188 35.2384 16.8235 36.5912 20.1037C36.7301 20.4779 36.7301 20.8895 36.5912 21.2637C35.2384 24.5439 32.942 27.3486 29.9932 29.3222C27.0445 31.2958 23.5761 32.3493 20.0279 32.3493C16.4796 32.3493 13.0112 31.2958 10.0625 29.3222C7.11372 27.3486 4.81736 24.5439 3.46453 21.2637Z" stroke="#5593F7" stroke-width="2.625" stroke-linecap="round" stroke-linejoin="round"/>
<path d="M20.0278 25.6846C22.7893 25.6846 25.0278 23.446 25.0278 20.6846C25.0278 17.9231 22.7893 15.6846 20.0278 15.6846C17.2664 15.6846 15.0278 17.9231 15.0278 20.6846C15.0278 23.446 17.2664 25.6846 20.0278 25.6846Z" stroke="#5593F7" stroke-width="2.625" stroke-linecap="round" stroke-linejoin="round"/>
</svg>
