<svg width="33" height="33" viewBox="0 0 33 33" fill="none" xmlns="http://www.w3.org/2000/svg">
<path d="M27.4447 17.5166C27.4447 24.1833 22.778 27.5166 17.2313 29.45C16.9409 29.5484 16.6254 29.5437 16.338 29.4366C10.778 27.5166 6.11133 24.1833 6.11133 17.5166V8.1833C6.11133 7.82968 6.2518 7.49054 6.50185 7.24049C6.7519 6.99044 7.09104 6.84996 7.44466 6.84996C10.1113 6.84996 13.4447 5.24996 15.7647 3.2233C16.0471 2.98196 16.4065 2.84937 16.778 2.84937C17.1495 2.84937 17.5089 2.98196 17.7913 3.2233C20.1247 5.2633 23.4447 6.84996 26.1113 6.84996C26.465 6.84996 26.8041 6.99044 27.0541 7.24049C27.3042 7.49054 27.4447 7.82968 27.4447 8.1833V17.5166Z" stroke="#0B111E" stroke-width="2.31" stroke-linecap="round" stroke-linejoin="round"/>
</svg>
