<svg width="37" height="37" viewBox="0 0 37 37" fill="none" xmlns="http://www.w3.org/2000/svg">
<path d="M18.7781 7.63399C18.7798 7.03403 18.6616 6.43978 18.4304 5.88619C18.1991 5.33259 17.8595 4.83083 17.4315 4.41041C17.0035 3.98998 16.4957 3.6594 15.9381 3.43808C15.3804 3.21677 14.7841 3.1092 14.1843 3.1217C13.5845 3.13421 12.9932 3.26653 12.4453 3.51089C11.8973 3.75524 11.4038 4.1067 10.9937 4.54459C10.5835 4.98248 10.2651 5.49796 10.0571 6.06072C9.84916 6.62347 9.7558 7.22213 9.78257 7.82149C8.90087 8.04819 8.08232 8.47256 7.38891 9.06246C6.69551 9.65235 6.14542 10.3923 5.78033 11.2263C5.41524 12.0602 5.24471 12.9663 5.28165 13.876C5.31859 14.7856 5.56204 15.6749 5.99357 16.4765C5.23484 17.0929 4.63821 17.8853 4.25557 18.7849C3.87294 19.6844 3.7159 20.6639 3.79811 21.638C3.88032 22.6121 4.19929 23.5513 4.72727 24.374C5.25526 25.1967 5.97626 25.878 6.82757 26.3585C6.72244 27.1718 6.78518 27.9981 7.0119 28.7863C7.23862 29.5744 7.62451 30.3077 8.14574 30.9409C8.66698 31.5741 9.31248 32.0937 10.0424 32.4676C10.7723 32.8416 11.5711 33.0619 12.3895 33.115C13.2079 33.1681 14.0285 33.0529 14.8006 32.7764C15.5728 32.4999 16.28 32.0681 16.8787 31.5076C17.4774 30.9471 17.9548 30.2698 18.2815 29.5176C18.6082 28.7653 18.7772 27.9541 18.7781 27.134V7.63399Z" stroke="#0B111E" stroke-width="2.475" stroke-linecap="round" stroke-linejoin="round"/>
<path d="M18.7779 7.63399C18.7761 7.03403 18.8943 6.43978 19.1256 5.88619C19.3568 5.33259 19.6964 4.83083 20.1244 4.41041C20.5525 3.98998 21.0602 3.6594 21.6179 3.43808C22.1755 3.21677 22.7718 3.1092 23.3716 3.1217C23.9714 3.13421 24.5627 3.26653 25.1106 3.51089C25.6586 3.75524 26.1521 4.1067 26.5622 4.54459C26.9724 4.98248 27.2908 5.49796 27.4988 6.06072C27.7068 6.62347 27.8001 7.22213 27.7734 7.82149C28.655 8.04819 29.4736 8.47256 30.167 9.06246C30.8604 9.65235 31.4105 10.3923 31.7756 11.2263C32.1407 12.0602 32.3112 12.9663 32.2743 13.876C32.2373 14.7856 31.9939 15.6749 31.5624 16.4765C32.3211 17.0929 32.9177 17.8853 33.3003 18.7849C33.683 19.6844 33.84 20.6639 33.7578 21.638C33.6756 22.6121 33.3566 23.5513 32.8286 24.374C32.3007 25.1967 31.5797 25.878 30.7284 26.3585C30.8335 27.1718 30.7707 27.9981 30.544 28.7863C30.3173 29.5744 29.9314 30.3077 29.4102 30.9409C28.8889 31.5741 28.2434 32.0937 27.5135 32.4676C26.7836 32.8416 25.9848 33.0619 25.1664 33.115C24.348 33.1681 23.5274 33.0529 22.7553 32.7764C21.9832 32.4999 21.2759 32.0681 20.6772 31.5076C20.0785 30.9471 19.6011 30.2698 19.2744 29.5176C18.9477 28.7653 18.7787 27.9541 18.7779 27.134V7.63399Z" stroke="#0B111E" stroke-width="2.475" stroke-linecap="round" stroke-linejoin="round"/>
<path d="M23.2778 19.6339C22.0185 19.1909 20.9188 18.3844 20.1178 17.3164C19.3168 16.2484 18.8505 14.9669 18.7778 13.6339C18.7052 14.9669 18.2388 16.2484 17.4378 17.3164C16.6369 18.3844 15.5372 19.1909 14.2778 19.6339" stroke="#0B111E" stroke-width="2.475" stroke-linecap="round" stroke-linejoin="round"/>
<path d="M27.1768 9.88501C27.5398 9.25589 27.7451 8.54824 27.7753 7.82251" stroke="#0B111E" stroke-width="2.475" stroke-linecap="round" stroke-linejoin="round"/>
<path d="M9.78223 7.82251C9.81189 8.54811 10.0167 9.25575 10.3792 9.88501" stroke="#0B111E" stroke-width="2.475" stroke-linecap="round" stroke-linejoin="round"/>
<path d="M5.99316 16.4775C6.26757 16.2541 6.56122 16.0553 6.87066 15.8835" stroke="#0B111E" stroke-width="2.475" stroke-linecap="round" stroke-linejoin="round"/>
<path d="M30.6846 15.8835C30.994 16.0553 31.2877 16.2541 31.5621 16.4775" stroke="#0B111E" stroke-width="2.475" stroke-linecap="round" stroke-linejoin="round"/>
<path d="M9.77765 27.1334C8.74389 27.1339 7.72755 26.8672 6.82715 26.3594" stroke="#0B111E" stroke-width="2.475" stroke-linecap="round" stroke-linejoin="round"/>
<path d="M30.7283 26.3594C29.8279 26.8672 28.8116 27.1339 27.7778 27.1334" stroke="#0B111E" stroke-width="2.475" stroke-linecap="round" stroke-linejoin="round"/>
</svg>
