<svg width="19" height="19" viewBox="0 0 19 19" fill="none" xmlns="http://www.w3.org/2000/svg">
<path d="M9.38187 1.59633C9.41839 1.52255 9.4748 1.46044 9.54475 1.41702C9.61469 1.3736 9.69538 1.35059 9.7777 1.35059C9.86003 1.35059 9.94072 1.3736 10.0107 1.41702C10.0806 1.46044 10.137 1.52255 10.1735 1.59633L12.0985 5.4955C12.2254 5.75214 12.4125 5.97417 12.6441 6.14254C12.8756 6.31091 13.1445 6.42059 13.4277 6.46216L17.7327 7.09216C17.8143 7.10398 17.8909 7.13839 17.9539 7.1915C18.017 7.2446 18.0639 7.31429 18.0894 7.39267C18.1149 7.47105 18.1179 7.555 18.0982 7.63503C18.0785 7.71505 18.0367 7.78796 17.9777 7.8455L14.8644 10.8772C14.6591 11.0772 14.5054 11.3242 14.4167 11.5969C14.328 11.8695 14.3069 12.1596 14.3552 12.4422L15.0902 16.7255C15.1046 16.807 15.0958 16.891 15.0648 16.9677C15.0338 17.0445 14.9818 17.111 14.9148 17.1597C14.8478 17.2083 14.7685 17.2372 14.6859 17.2429C14.6033 17.2487 14.5208 17.2311 14.4477 17.1922L10.5994 15.1688C10.3458 15.0357 10.0637 14.9661 9.77729 14.9661C9.49089 14.9661 9.20877 15.0357 8.9552 15.1688L5.1077 17.1922C5.03465 17.2308 4.9522 17.2482 4.86975 17.2424C4.78729 17.2365 4.70814 17.2076 4.64128 17.159C4.57443 17.1104 4.52256 17.044 4.49158 16.9674C4.4606 16.8907 4.45175 16.8069 4.46604 16.7255L5.2002 12.443C5.2487 12.1603 5.22769 11.87 5.13899 11.5972C5.05028 11.3244 4.89654 11.0773 4.69104 10.8772L1.5777 7.84633C1.5182 7.78886 1.47603 7.71583 1.45601 7.63556C1.43598 7.55529 1.4389 7.47101 1.46444 7.39232C1.48997 7.31363 1.53709 7.2437 1.60043 7.19048C1.66378 7.13727 1.74079 7.10291 1.8227 7.09133L6.12687 6.46216C6.41042 6.42091 6.6797 6.31138 6.91152 6.14299C7.14335 5.97459 7.33079 5.75239 7.4577 5.4955L9.38187 1.59633Z" fill="#EAB308" stroke="#EAB308" stroke-width="1.75" stroke-linecap="round" stroke-linejoin="round"/>
</svg>
