<svg width="19" height="16" viewBox="0 0 19 16" fill="none" xmlns="http://www.w3.org/2000/svg">
<path d="M18.7503 7.99963C18.7503 8.26485 18.6449 8.52011 18.4573 8.70764C18.2698 8.895 18.0154 8.99963 17.7503 8.99963L3.66436 8.99963L8.70733 14.0426C8.89484 14.2301 9.00018 14.4845 9.00029 14.7496C9.00029 15.015 8.89494 15.27 8.70733 15.4576C8.51974 15.6451 8.26549 15.7506 8.00029 15.7506C7.7351 15.7506 7.48085 15.6451 7.29326 15.4576L0.543263 8.70764C0.450343 8.61482 0.375813 8.50474 0.32549 8.38342C0.275166 8.26202 0.249318 8.13105 0.249318 7.99963C0.249373 7.86836 0.27522 7.73809 0.32549 7.61682C0.363177 7.52593 0.414669 7.44163 0.476857 7.36584L0.543263 7.2926L7.29326 0.542603C7.48086 0.355119 7.73507 0.249634 8.00029 0.249634C8.26552 0.249634 8.51973 0.355119 8.70733 0.542603C8.89484 0.730119 9.00018 0.984457 9.00029 1.24963C9.00029 1.51496 8.89494 1.77003 8.70733 1.95764L3.66533 6.99963L17.7503 6.99963C18.0154 6.99963 18.2698 7.1052 18.4573 7.2926C18.6448 7.48004 18.7502 7.73457 18.7503 7.99963Z" fill="#D1D1D1" stroke="#D0D1D1" stroke-width="0.5"/>
</svg>
