<svg width="33" height="38" viewBox="0 0 33 38" fill="none" xmlns="http://www.w3.org/2000/svg">
<path d="M1.24259 19.1193C0.279025 17.467 0.83826 15.4725 2.69261 14.3434C3.34099 13.9486 3.59508 13.4803 3.79046 12.7882C5.00205 8.49639 7.69523 5.49521 11.9291 3.88767C12.2578 3.76286 12.5706 3.587 12.9078 3.49617C13.7619 3.26605 14.2875 2.84051 14.5303 1.90474C14.8021 0.857149 16.7581 -0.0314104 17.9518 0.160537C19.2603 0.370959 20.4613 1.64679 20.5093 2.96234C20.5288 3.49697 20.4447 4.04987 20.3159 4.57228C20.0137 5.79759 19.2499 6.62738 17.9671 6.85825C16.5532 7.11271 15.3631 6.69394 14.6317 5.42559C14.2918 4.83602 13.9707 4.83068 13.4108 5.07362C11.0693 6.08961 8.92749 7.40213 7.56887 9.58818C6.72534 10.9454 6.17664 12.484 5.53633 13.9585C5.4843 14.0783 5.70022 14.4092 5.87138 14.5113C7.36554 15.4022 7.92531 16.8674 7.2694 18.4264C7.23697 17.9879 7.26411 17.5433 7.2927 17.0988C7.31562 16.7424 7.10562 16.5997 6.80853 16.7106C6.51222 16.8211 6.25556 17.0356 5.96491 17.1624C5.55738 16.4106 5.00485 15.8841 4.14679 15.9142C3.44488 15.9388 3.09335 16.4768 2.8567 17.0664C2.57273 17.7739 2.84195 18.3325 3.33452 18.818C2.70932 18.3567 1.98022 18.3393 1.24259 18.1388C1.24259 18.5024 1.24259 18.8108 1.24259 19.1193ZM16.3248 4.56937C17.3174 5.15898 18.0547 4.9436 18.871 3.82566C19.2473 3.31026 18.9868 2.48244 18.2865 1.96843C17.6642 1.51171 16.6513 1.48698 16.3069 2.01216C15.5409 3.18025 15.2879 3.72504 16.3248 4.56937Z" fill="#00B6F9"/>
<path d="M6.77988 23.8685C7.50838 24.6228 8.21212 25.4029 8.97579 26.1206C9.36071 26.4824 9.8228 26.811 10.3113 26.9991C10.5783 27.102 11.0657 26.9845 11.2931 26.7862C12.0021 26.1682 12.6406 25.4701 13.2952 24.7924C14.4799 23.5661 15.6386 22.3147 16.8429 21.1077C17.6171 20.3318 17.6487 20.2791 16.9089 19.4811C16.8046 19.3686 16.697 19.2593 16.5706 19.0626C16.398 18.8497 16.2458 18.7227 16.0935 18.5957C16.0935 18.5957 16.0742 18.5883 16.1 18.5383C16.7462 17.6347 17.0007 17.5963 17.7893 18.2206C17.8623 18.2784 17.9803 18.2804 18.0774 18.3083C18.0774 18.3083 18.0702 18.3197 18.0677 18.3675C18.1922 18.49 18.3193 18.5648 18.4464 18.6396C18.7511 18.9591 18.9974 18.9326 19.3134 18.6008C20.0886 17.7869 20.8923 17.0383 22.1679 17.0576C24.7311 17.0965 26.4547 19.8428 25.2905 22.0902C24.4412 23.7297 23.1854 24.4784 21.5965 24.271C20.5393 24.1331 19.8197 23.4771 19.2002 22.6845C19.0407 22.4804 18.8916 22.2684 18.6928 21.9993C18.428 22.2087 18.1693 22.3692 17.9656 22.5814C16.5555 24.0501 15.1707 25.5428 13.7483 26.9997C13.092 27.6719 12.3679 28.2793 11.6773 28.919C11.1323 29.4238 10.5636 29.4143 9.92741 29.0708C7.87161 27.9608 6.17619 26.4885 5.04282 24.3341C4.80484 23.2821 4.93905 23.0594 5.76774 22.8971C6.0945 23.1966 6.38113 23.4594 6.66777 23.7221C6.66777 23.7221 6.6517 23.7431 6.64843 23.7634C6.69006 23.812 6.73497 23.8403 6.77988 23.8685ZM23.3939 21.404C23.9955 20.8011 24.1632 20.1737 23.8754 19.6026C23.5572 18.9713 22.9095 18.6487 22.1683 18.7526C21.5544 18.8386 20.521 19.7859 20.411 20.3769C20.3878 20.5016 20.3601 20.6992 20.4269 20.7549C21.007 21.2394 21.5644 21.7864 22.2295 22.1145C22.4355 22.2162 22.9516 21.7032 23.3939 21.404Z" fill="#435BFB"/>
<path d="M29.9328 27.7481C29.9328 27.7481 29.9359 27.7774 29.8778 27.7952C29.6791 27.9948 29.5384 28.1766 29.3976 28.3583C27.6909 30.2639 25.5224 31.4705 23.161 32.3838C22.8951 32.4866 22.6229 32.573 22.3553 32.6714C21.3685 33.0344 21.3123 33.1696 21.215 34.2206C21.0852 35.6236 20.2514 36.6152 19.0236 37.1926C17.8739 37.7332 16.8245 37.2484 15.9319 36.4793C14.1724 34.9633 14.1712 33.6203 15.6192 31.6079C16.2971 30.6658 18.3337 30.4491 19.4613 31.1466C20.0455 31.508 20.5302 31.4907 21.1256 31.2364C23.0674 30.4068 25.0256 29.6147 26.827 28.3332C26.9751 28.2527 27.0343 28.1903 27.0936 28.1279C27.0936 28.1279 27.0965 28.1478 27.1365 28.1458C27.4283 27.8511 27.6802 27.5584 27.932 27.2657C27.932 27.2657 27.9362 27.2762 27.9644 27.2633C28.0165 27.2094 28.0403 27.1684 28.0642 27.1275C28.0642 27.1275 28.0664 27.1438 28.0929 27.1307C28.1449 27.0771 28.1704 27.0365 28.196 26.996C28.196 26.996 28.1876 27.0109 28.2309 27.0079C28.8915 26.3415 29.5721 26.4866 30.3422 26.8102C30.2297 26.9994 30.139 27.1201 30.0829 27.2548C30.0171 27.4129 29.9815 27.5831 29.9328 27.7481ZM18.6762 35.6115C18.8825 35.3076 19.1336 35.0238 19.2857 34.6952C19.5786 34.0623 19.3535 33.5023 18.891 33.0376C18.4853 32.6299 17.92 32.4381 17.462 32.7773C16.947 33.1588 16.3135 33.6752 16.1976 34.2284C15.9891 35.2242 17.6356 36.1431 18.6762 35.6115Z" fill="#6705FC"/>
<path d="M30.8177 20.6176C31.052 17.5433 29.9577 14.9242 27.9982 12.4918C27.0189 13.5274 25.8879 14.0938 24.492 13.7718C23.5776 13.5609 22.8785 13.0012 22.4083 12.1219C22.399 11.9243 22.3591 11.7999 22.3579 11.6752C22.3552 11.3945 22.2897 10.9123 22.3956 10.8701C22.7299 10.737 23.131 10.7529 23.5069 10.7466C23.6154 10.7448 23.726 10.8628 23.8549 10.9555C23.8672 11.0308 23.8603 11.0764 23.8526 11.1724C24.0384 11.7141 24.3513 12.0252 24.9786 11.9566C25.4854 11.7368 25.9413 11.5212 26.4156 11.2907C26.4566 11.2534 26.475 11.228 26.488 11.195C26.4866 11.1903 26.4964 11.1889 26.523 11.1685C26.5676 11.1081 26.5857 11.0681 26.5988 11.0308C26.5937 11.0335 26.5876 11.0238 26.636 11.0251C27.2162 10.4728 27.8641 10.357 28.5893 10.533C28.5893 10.533 28.6205 10.5479 28.6195 10.6161C28.6856 10.7337 28.7526 10.7831 28.8197 10.8326C28.8197 10.8326 28.8237 10.849 28.8103 10.894C28.8403 10.9463 28.8836 10.9536 28.9269 10.961C28.9269 10.961 28.9468 10.9678 28.9378 11.0193C29.0491 11.1498 29.1694 11.2289 29.2897 11.308C31.3939 13.4253 32.6274 15.9225 32.7075 18.9292C32.7201 19.402 32.7785 19.8736 32.7779 20.3593C32.6376 19.5049 32.5352 18.637 32.4287 17.7344C32.2205 17.7677 32.1138 17.7734 32.0141 17.8026C31.4457 17.9689 30.9468 18.1072 31.0734 18.9383C31.1549 19.4732 30.9141 20.0562 30.8177 20.6176Z" fill="#2981F8"/>
<path d="M30.796 20.6629C30.9141 20.0562 31.1549 19.4732 31.0734 18.9383C30.9467 18.1072 31.4457 17.9689 32.0141 17.8026C32.1138 17.7734 32.2205 17.7677 32.4287 17.7344C32.5352 18.637 32.6376 19.505 32.7654 20.4169C32.635 23.1612 31.6468 25.5493 29.974 27.7221C29.9814 27.5832 30.017 27.4129 30.0828 27.2549C30.1389 27.1201 30.2297 26.9994 30.3421 26.8102C29.5721 26.4866 28.8915 26.3416 28.2241 27.0025C29.1228 25.6669 29.9513 24.2706 30.371 22.6783C30.5417 22.031 30.642 21.3655 30.796 20.6629Z" fill="#435BFB"/>
<path d="M23.8357 10.9259C23.7261 10.8628 23.6155 10.7448 23.507 10.7466C23.1312 10.7529 22.73 10.737 22.3958 10.8701C22.2899 10.9123 22.3554 11.3945 22.358 11.6752C22.3592 11.8 22.3992 11.9243 22.393 12.0799C21.4474 10.6881 21.8633 8.97451 23.4708 8.21567C23.589 8.15987 23.7015 8.0892 23.809 8.01459C25.8735 6.58104 27.4108 7.80646 28.1828 9.47498C28.3281 9.78917 28.436 10.1203 28.5753 10.4883C27.8642 10.357 27.2164 10.4728 26.6388 10.971C26.6605 9.9692 26.2696 9.32401 25.5212 9.14621C24.9494 9.01036 24.2167 9.46356 23.9466 10.1638C23.8564 10.3977 23.8697 10.6707 23.8357 10.9259Z" fill="#1892FA"/>
<path d="M1.24355 19.117C1.24268 18.8108 1.24268 18.5023 1.24268 18.1388C1.9803 18.3393 2.70941 18.3567 3.33653 18.8248C3.38323 18.8194 3.37495 18.8308 3.37959 18.879C3.50216 18.9612 3.62009 18.9951 3.79545 19.0298C4.50894 19.21 4.99331 18.9882 5.34752 18.4255C5.484 18.2087 5.65614 18.0139 5.83397 17.8369C5.89796 17.6895 5.94002 17.5143 5.97463 17.3054C5.97199 17.2494 5.9768 17.2269 5.98161 17.2045C6.25565 17.0356 6.51231 16.8211 6.80862 16.7106C7.10571 16.5997 7.31571 16.7424 7.29279 17.0988C7.26419 17.5433 7.23706 17.9879 7.24112 18.4683C6.78729 19.0509 6.29288 19.5905 5.8202 20.1481C5.62614 20.377 5.47891 20.6447 5.27822 20.9179C4.81208 20.0296 4.1486 19.9744 3.43737 20.7906C2.82164 20.4126 2.20591 20.0345 1.59898 19.6014C1.58309 19.5452 1.5623 19.4962 1.53761 19.4952C1.53761 19.4952 1.52111 19.5156 1.53529 19.4616C1.50232 19.391 1.64613 19.6181 1.59898 19.6014L1.33909 19.2989L1.24784 19.1141C1.24784 19.1141 1.24442 19.1147 1.24355 19.117Z" fill="#1892FA"/>
<path d="M15.2707 14.1796C15.2566 14.6281 15.2426 15.0765 15.174 15.581C14.459 15.9353 13.6477 16.08 13.6466 17.0502C12.4491 17.5929 11.3656 17.3747 10.3454 16.2928C10.3643 15.8653 10.275 15.3738 10.4581 15.2361C10.7813 14.9928 11.2702 14.6625 11.6897 15.2043C11.689 15.2086 11.6805 15.2068 11.6903 15.242C11.7371 15.3075 11.7742 15.3378 11.8045 15.3684C11.7976 15.3689 11.798 15.3552 11.8188 15.3893C11.9137 15.4486 11.9878 15.4738 12.1109 15.503C12.6253 15.6296 13.0797 15.6723 13.3328 15.1541C13.5756 14.6568 13.4166 14.2445 13.0134 13.8882C13.1393 13.8015 13.2325 13.7443 13.3298 13.6952C14.3627 13.1739 14.4805 13.202 15.0993 14.0922C15.1314 14.1383 15.2124 14.1512 15.2707 14.1796Z" fill="#1892FA"/>
<path d="M11.6901 15.2001C11.27 14.6625 10.7811 14.9929 10.4579 15.2361C10.2749 15.3738 10.3641 15.8653 10.3306 16.2508C9.47332 15.6195 9.6254 13.7212 10.3071 12.9552C11.1124 12.0501 12.155 11.8363 13.2985 12.0824C14.3802 12.3153 15.0862 12.9568 15.2718 14.1287C15.2122 14.1512 15.1312 14.1384 15.0992 14.0922C14.4804 13.202 14.3625 13.174 13.3296 13.6952C13.2323 13.7444 13.1391 13.8015 12.9657 13.8915C12.0136 13.7627 11.6384 14.1613 11.6901 15.2001Z" fill="#00B6F9"/>
<path d="M13.6471 17.0436C13.6031 16.0829 14.4616 15.8673 15.1692 15.5692C16.1607 16.428 17.7856 17.942 18.7425 18.8408C18.6763 18.9063 17.8132 18.2613 17.7404 18.2039C16.9529 17.5835 17.2125 18.1451 16.5588 19.0371C16.0012 18.6401 14.9811 17.6538 14.4319 17.2468C14.2402 17.1048 13.9412 17.1071 13.6471 17.0436Z" fill="#2981F8"/>
<path d="M3.32422 20.673C4.02874 19.8261 4.82457 20.0215 5.29627 20.9599C5.334 20.9868 5.3265 20.9884 5.32541 21.0361C5.43005 21.2671 5.53577 21.4504 5.6415 21.6338C5.98228 22.2972 6.68085 23.4325 7.02991 24.1409C6.75154 23.9233 6.03321 23.2626 5.70645 22.9631C4.87776 23.1254 5.30941 23.4866 5.0512 24.2836C4.66688 23.6006 4.28473 22.863 3.9279 22.043C3.82961 21.6356 3.59543 21.3419 3.52274 21.0001C3.48303 20.9529 3.37064 20.7508 3.32422 20.673Z" fill="#2981F8"/>
<path d="M27.8895 27.2802C27.68 27.5584 27.4282 27.8511 27.1284 28.1395C27.3361 27.855 27.5916 27.5749 27.8895 27.2802Z" fill="#435BFB"/>
<path d="M3.57227 21.0446C3.69314 21.3186 3.81675 21.6437 3.91163 22.0044C3.78027 21.7253 3.67764 21.4105 3.57227 21.0446Z" fill="#1892FA"/>
<path d="M29.4355 28.3369C29.5383 28.1766 29.6791 27.9948 29.8643 27.8016C29.7638 27.9652 29.6186 28.1404 29.4355 28.3369Z" fill="#435BFB"/>
<path d="M5.61901 21.5959C5.52321 21.4585 5.41749 21.2752 5.31396 21.0405C5.41381 21.1761 5.51145 21.363 5.61901 21.5959Z" fill="#1892FA"/>
<path d="M16.1045 18.6335C16.2455 18.7227 16.3978 18.8497 16.551 19.0247C16.4066 18.9389 16.2611 18.8051 16.1045 18.6335Z" fill="#2981F8"/>
<path d="M18.4257 18.602C18.3191 18.5648 18.192 18.49 18.0742 18.367C18.1908 18.4006 18.298 18.4825 18.4257 18.602Z" fill="#2981F8"/>
<path d="M29.2731 11.2708C29.1694 11.229 29.049 11.1499 28.9468 11.0245C29.0621 11.0634 29.1593 11.1485 29.2731 11.2708Z" fill="#1892FA"/>
<path d="M27.0503 28.1347C27.0344 28.1903 26.9752 28.2527 26.8667 28.3185C26.8807 28.2618 26.9438 28.2017 27.0503 28.1347Z" fill="#435BFB"/>
<path d="M28.8091 10.7931C28.7525 10.7831 28.6854 10.7337 28.6182 10.6332C28.6782 10.6393 28.7384 10.6964 28.8091 10.7931Z" fill="#1892FA"/>
<path d="M6.77268 23.8347C6.73487 23.8403 6.68996 23.812 6.65332 23.7513C6.69625 23.7461 6.73092 23.7735 6.77268 23.8347Z" fill="#2981F8"/>
<path d="M28.9203 10.9368C28.8837 10.9536 28.8404 10.9463 28.813 10.9021C28.8658 10.8659 28.894 10.8817 28.9203 10.9368Z" fill="#1892FA"/>
<path d="M28.1553 27.0019C28.1693 27.0365 28.144 27.0771 28.0843 27.1307C28.072 27.0984 28.0941 27.0531 28.1553 27.0019Z" fill="#435BFB"/>
<path d="M28.0248 27.1354C28.0394 27.1684 28.0158 27.2094 27.9588 27.2647C27.9459 27.2337 27.9663 27.1885 28.0248 27.1354Z" fill="#435BFB"/>
<path d="M16.2871 4.53667C15.2876 3.72503 15.5405 3.18024 16.3066 2.01215C16.651 1.48697 17.6639 1.5117 18.2861 1.96843C18.9864 2.48243 19.247 3.31025 18.8707 3.82565C18.0544 4.94359 17.317 5.15897 16.2871 4.53667Z" fill="#000717"/>
<path d="M5.96456 17.1624C5.97637 17.2269 5.97156 17.2494 5.95442 17.3432C5.89859 17.5461 5.8551 17.6776 5.81161 17.809C5.65571 18.0139 5.48357 18.2088 5.34709 18.4256C4.99288 18.9882 4.50851 19.21 3.76572 18.9992C3.5775 18.9222 3.47601 18.8765 3.37452 18.8308C3.37452 18.8308 3.3828 18.8194 3.38088 18.8126C2.84161 18.3325 2.57239 17.7739 2.85636 17.0664C3.09301 16.4768 3.44454 15.9388 4.14645 15.9142C5.00451 15.8841 5.55704 16.4106 5.96456 17.1624Z" fill="#000717"/>
<path d="M23.3595 21.4379C22.9513 21.7033 22.4352 22.2162 22.2292 22.1145C21.5641 21.7864 21.0068 21.2394 20.4266 20.755C20.3598 20.6992 20.3875 20.5016 20.4107 20.3769C20.5207 19.7859 21.5541 18.8386 22.168 18.7526C22.9092 18.6487 23.5569 18.9713 23.8751 19.6026C24.1629 20.1737 23.9952 20.8011 23.3595 21.4379Z" fill="#000717"/>
<path d="M18.6375 35.6421C17.6357 36.1431 15.9892 35.2242 16.1977 34.2284C16.3136 33.6752 16.9471 33.1588 17.4621 32.7774C17.9201 32.4381 18.4854 32.6299 18.8911 33.0376C19.3536 33.5023 19.5787 34.0623 19.2858 34.6953C19.1337 35.0238 18.8827 35.3076 18.6375 35.6421Z" fill="#000717"/>
<path d="M23.8551 10.9555C23.8698 10.6707 23.8565 10.3977 23.9467 10.1638C24.2168 9.46356 24.9495 9.01036 25.5213 9.14621C26.2697 9.32401 26.6606 9.9692 26.5906 10.9697C26.5878 11.0238 26.5939 11.0335 26.5682 11.0471C26.5272 11.1035 26.5119 11.1462 26.4966 11.1889C26.4966 11.1889 26.4868 11.1903 26.4652 11.2053C26.4142 11.2413 26.3988 11.2697 26.3974 11.3055C25.9415 11.5212 25.4856 11.7368 24.9422 11.9286C24.5209 11.6438 24.1872 11.3829 23.8535 11.122C23.8605 11.0764 23.8674 11.0308 23.8551 10.9555Z" fill="#000717"/>
<path d="M23.8525 11.1724C24.1869 11.3829 24.5206 11.6438 24.8909 11.9327C24.3511 12.0252 24.0383 11.7141 23.8525 11.1724Z" fill="#1892FA"/>
<path d="M26.523 11.1685C26.5119 11.1462 26.527 11.1035 26.5726 11.0444C26.5851 11.0681 26.5672 11.1081 26.523 11.1685Z" fill="#1892FA"/>
<path d="M26.4158 11.2908C26.3989 11.2697 26.4141 11.2413 26.4659 11.21C26.4745 11.228 26.4563 11.2534 26.4158 11.2908Z" fill="#1892FA"/>
<path d="M5.83398 17.8369C5.85554 17.6775 5.89903 17.5461 5.96231 17.3768C5.94003 17.5143 5.89797 17.6895 5.83398 17.8369Z" fill="#00B6F9"/>
<path d="M3.37939 18.879C3.47625 18.8765 3.57774 18.9222 3.70854 18.9985C3.6199 18.9951 3.50197 18.9612 3.37939 18.879Z" fill="#00B6F9"/>
<path d="M11.6898 15.2043C11.6387 14.1613 12.0139 13.7626 12.9352 13.9248C13.4168 14.2445 13.5758 14.6568 13.3329 15.1541C13.0798 15.6723 12.6255 15.6296 12.0871 15.4729C11.9422 15.411 11.8702 15.3831 11.7981 15.3552C11.7981 15.3552 11.7977 15.3689 11.7929 15.3337C11.7522 15.268 11.7164 15.2374 11.6807 15.2068C11.6807 15.2068 11.6892 15.2086 11.6898 15.2043Z" fill="#000717"/>
<path d="M11.8188 15.3893C11.8701 15.3831 11.9421 15.411 12.0381 15.4689C11.9879 15.4738 11.9138 15.4486 11.8188 15.3893Z" fill="#00B6F9"/>
<path d="M11.6904 15.242C11.7164 15.2374 11.7522 15.268 11.7997 15.3333C11.7744 15.3378 11.7373 15.3075 11.6904 15.242Z" fill="#00B6F9"/>
</svg>
